<svg width="24" height="24" viewBox="0 0 26 26" fill="none" xmlns="http://www.w3.org/2000/svg">
<rect x="2" y="1" width="22" height="24" rx="3" fill="#D9D9D9"/>
<path d="M17.3333 15.6667H17.8333V15.1667V13V12.5H17.3333H8.66667H8.16667V13V15.1667V15.6667H8.66667H17.3333ZM17.3333 11.3333H17.8333V10.8333V8.66666V8.16666H17.3333H8.66667H8.16667V8.66666V10.8333V11.3333H8.66667H17.3333ZM5.95833 2.66666H20.0417C21.2605 2.66666 22.25 3.65613 22.25 4.87499V21.125C22.25 22.3438 21.2605 23.3333 20.0417 23.3333H5.95833C4.73948 23.3333 3.75 22.3438 3.75 21.125V4.87499C3.75 3.65613 4.73948 2.66666 5.95833 2.66666Z" fill="black" stroke="black"/>
</svg>
