<svg width="27" height="27" viewBox="0 0 27 27" fill="none" xmlns="http://www.w3.org/2000/svg">
<g clip-path="url(#clip0_507_25)">
<rect width="26.5" height="26.88" rx="3" fill="#D9D9D9"/>
<path d="M17.3542 15.94H17.8542V15.44V13.2V12.7H17.3542H8.52083H8.02083V13.2V15.44V15.94H8.52083H17.3542ZM17.3542 11.46H17.8542V10.96V8.72V8.22H17.3542H8.52083H8.02083V8.72V10.96V11.46H8.52083H17.3542ZM5.76042 2.5H20.1146C21.3555 2.5 22.375 3.52381 22.375 4.8V21.6C22.375 22.8762 21.3555 23.9 20.1146 23.9H5.76042C4.5195 23.9 3.5 22.8762 3.5 21.6V4.8C3.5 3.52381 4.5195 2.5 5.76042 2.5Z" fill="black" stroke="black"/>
</g>
<defs>
<clipPath id="clip0_507_25">
<rect width="26.5" height="26.88" rx="3" fill="white"/>
</clipPath>
</defs>
</svg>
